<svg xmlns="http://www.w3.org/2000/svg" viewBox="0 0 306.83 265.92"><defs><style>.a{fill:#fff;}.b{fill:#e12129;}.c{stroke:#000;stroke-miterlimit:10;}.d{fill:#e02329;}</style></defs><title>guessingLogo</title><polyline class="a" points="291.25 9 151.96 247.91 15.58 9 291.25 9"/><path class="b" d="M291.17,9L151.88,247.91,15.5,9H291.17m15.66-9H0L7.68,13.46,144.07,252.37l7.73,13.55,7.86-13.48L298.94,13.53,306.83,0h0Z"/><path class="c" d="M71,57.35c0-1.12-.46-2.8-1.24-2.8-0.35,0-.57.1-1.48,0.84a10.55,10.55,0,0,1-7,2.61c-9.36,0-14.78-6.49-14.78-17.4C46.46,29.17,52.57,22,61,22c3.93,0,6,1.53,8.14,3.18a1.5,1.5,0,0,0,.9.5c0.57,0,.95-0.93,1.13-3h1C72,25.07,72,28.25,72,34H71c-0.42-2.75-.86-5.38-2.27-7.25a9.84,9.84,0,0,0-7.81-3.83c-6,0-10,6.68-10,17.2,0,11.77,3.4,17,10.77,17a7.79,7.79,0,0,0,4.7-1.53,2.73,2.73,0,0,0,1.3-2.68V48.14c0-4-.77-4.55-4.57-4.71v-1c1.59,0.12,4.35.17,6.38,0.17a35.33,35.33,0,0,0,4.7-.17v1c-2,.17-2.29.6-2.29,4.21v9.71H71Z"/><path class="c" d="M105.35,23.64c-3.07.14-3.64,1.12-3.64,4.71V43.09c0,4.55-.51,7.9-1.85,10.38A9.2,9.2,0,0,1,91.58,58c-2.89,0-5.6-.65-7.59-2.66-2.67-2.7-3.35-5.48-3.35-12.15V27.85c0-3.56-.57-4.07-3.66-4.21v-1c1.28,0.1,3.44.14,5.78,0.14,2.1,0,4.35,0,5.76-.14v1c-3.09.14-3.66,0.65-3.66,4.21V44.07c0,6.72.71,12.25,7.13,12.25,6.82,0,8.67-5.38,8.67-12.68V28.35c0-3.59-1-4.57-4.1-4.71v-1c1.08,0.1,3.07.14,4.61,0.14a36.69,36.69,0,0,0,4.19-.14v1h0Z"/><path class="c" d="M131.76,47.54c-0.09.89-.13,2.18-0.13,3.54s0.09,3.78.31,6.27c-3.07-.14-7.33-0.14-10.35-0.14-2.71,0-8.67,0-13.11.14v-1c3.07-.14,3.66-0.65,3.66-4.21V27.85c0-3.56-.6-4.07-3.66-4.21v-1c4.44,0.14,10.39.14,13.11,0.14s6.64,0,9.44-.14c-0.22,2.3-.31,4.67-0.31,5.79a28.51,28.51,0,0,0,.13,3h-1c-0.6-5.79-1.28-7.7-6.07-7.7H120c-3.07,0-3.66.5-3.66,4.07V39.41h3c3.93,0,3.84-4.12,4.19-6.46h1c-0.1,2-.1,3.49-0.1,4.61V39.9c0,1.6,0,3.23.26,7h-1c-0.35-3.13-.4-6.48-4.32-6.48h-3V52.16c0,3.56.6,4.07,3.66,4.07h3.31c5.65,0,6.77-2.2,7.41-8.69h1Z"/><path class="c" d="M138.16,45.94c0.38,5.93,2.45,11.13,8.23,11.13,2.93,0,5.87-1.91,5.87-6.53,0-4-2.85-6.22-7-9s-8.05-5.46-8.05-11c0-5.79,4-8.49,8.49-8.49a8.08,8.08,0,0,1,5.52,1.82,2.81,2.81,0,0,0,1.54.69c0.57,0,.82-0.74,1-2.15h1c-0.13,1.72-.22,3.83-0.22,10h-1c-0.33-4.67-2.41-9.43-7.41-9.43a5.37,5.37,0,0,0-5.53,5.21h0v0.48c0,4.45,3.53,6.22,7.59,9,4.7,3.18,8.14,5.77,8.14,11,0,6.22-4.35,9.31-9.6,9.31a9.92,9.92,0,0,1-6.18-1.82,3,3,0,0,0-1.54-.69c-0.57,0-.82.74-1,2.15h-1c0.13-2,.18-4.83.18-11.75h1Z"/><path class="c" d="M162.57,45.94C163,51.87,165,57.07,170.8,57.07c2.93,0,5.87-1.91,5.87-6.53,0-4-2.85-6.22-7-9s-8.05-5.46-8.05-11c0-5.79,4-8.49,8.49-8.49a8.09,8.09,0,0,1,5.52,1.82,2.81,2.81,0,0,0,1.54.69c0.57,0,.82-0.74,1-2.15h1c-0.13,1.72-.22,3.83-0.22,10h-1c-0.38-4.66-2.49-9.46-7.49-9.46a5.37,5.37,0,0,0-5.53,5.21h0v0.48c0,4.45,3.53,6.22,7.59,9,4.7,3.18,8.14,5.77,8.14,11,0,6.22-4.35,9.31-9.6,9.31a9.92,9.92,0,0,1-6.18-1.82,3,3,0,0,0-1.54-.69c-0.57,0-.82.74-1,2.15h-1c0.13-2,.18-4.83.18-11.75h1Z"/><path class="c" d="M196.33,23.64c-3.07.14-3.66,0.65-3.66,4.21V52.16c0,3.56.6,4.07,3.66,4.21v1c-1.39-.1-3.66-0.14-5.74-0.14-2.34,0-4.52,0-5.78.14v-1c3.07-.14,3.66-0.65,3.66-4.21V27.85c0-3.56-.6-4.07-3.66-4.21v-1c1.26,0.1,3.44.14,5.78,0.14,2.07,0,4.35,0,5.74-.14v1Z"/><path class="c" d="M228.46,23.64c-3.07.14-3.66,1.12-3.66,4.71V57.59h-1l-19-31.8V51.66c0,3.59.6,4.57,4.1,4.71v1c-1.08-.1-3.07-0.14-4.61-0.14a36.69,36.69,0,0,0-4.19.14v-1c3.07-.14,3.66-1.12,3.66-4.71V27.85c0-3.56-.6-4.07-3.66-4.21v-1c1,0.1,2.67.14,4.19,0.14a27.1,27.1,0,0,0,3.53-.14l16,26.65v-21c0-3.59-.57-4.57-4.1-4.71v-1c1.08,0.1,3.07.14,4.61,0.14a36.69,36.69,0,0,0,4.19-.14v1Z"/><path class="c" d="M256.86,57.35c0-1.12-.46-2.8-1.24-2.8-0.35,0-.57.1-1.48,0.84A10.55,10.55,0,0,1,247.08,58c-9.35,0-14.8-6.53-14.8-17.44,0-11.39,6.18-18.56,14.54-18.56,3.93,0,6,1.53,8.14,3.18a1.5,1.5,0,0,0,.91.5c0.57,0,1-.93,1.13-3h1c-0.13,2.39-.18,5.57-0.18,11.27h-1c-0.42-2.75-.86-5.38-2.27-7.25a9.84,9.84,0,0,0-7.81-3.83c-6,0-10,6.68-10,17.2,0,11.77,3.4,17,10.77,17a7.79,7.79,0,0,0,4.7-1.53,2.73,2.73,0,0,0,1.3-2.68V48.14c0-4-.77-4.55-4.57-4.71v-1c1.59,0.12,4.35.17,6.38,0.17a35.33,35.33,0,0,0,4.7-.17v1c-2,.17-2.29.6-2.29,4.21v9.71h-0.87Z"/><path class="b" d="M135.64,112.2q6.28-4.54,15.43-4.54,12,0,20,6.46t8,19.13a23.56,23.56,0,0,1-3.45,13.09q-2,3.23-7.75,8.25l-3.77,3.29a12.88,12.88,0,0,0-4.09,6.28,29.62,29.62,0,0,0-.69,7.05H144.85q0.32-10.1,1.7-14t7.11-8.88l3.88-3.41a14.57,14.57,0,0,0,3.08-3.53,13.07,13.07,0,0,0,2.12-7.23,15.18,15.18,0,0,0-2.36-8.28q-2.36-3.74-8.63-3.74t-8.73,4.6a19.34,19.34,0,0,0-2.57,9.56H125Q125.69,119.31,135.64,112.2Zm8.82,67.19h15.91v17.28H144.46V179.39h0Z"/><rect class="a" x="136.63" y="178" width="32.33" height="28.33"/><path class="d" d="M152.79,215.42s-0.73-.14-3.66-3.07-11.27-11.17-11.27-11.17-1.81-2.2,0-4,13.22-13.29,13.22-13.29,1.33-1.12,1.71-.87v6.35l-9.11,9.11a1,1,0,0,0,.23,1.39h0l1.43,1.43s0.24,0.42.8-.17,6.63-6.66,6.63-6.66v7.36L149.55,205s-0.38.14,0,.52l3.28,3.25v6.63Z"/><path d="M152.79,215.42s0.73-.14,3.66-3.07,11.27-11.17,11.27-11.17,1.81-2.2,0-4-13.26-13.27-13.26-13.27-1.33-1.12-1.71-.87v6.35l9.11,9.11a1,1,0,0,1-.23,1.39h0l-1.43,1.43s-0.24.42-.8-0.17-6.63-6.66-6.63-6.66v7.36L156,205s0.38,0.14,0,.52l-3.28,3.25v6.63Z"/><path d="M128.23,81.4h5.24v6.54a14.39,14.39,0,0,1-4.69.73A5.67,5.67,0,0,1,124.44,87a6.52,6.52,0,0,1-1.53-4.64,6.09,6.09,0,0,1,1.68-4.57,6.45,6.45,0,0,1,4.7-1.64,10.35,10.35,0,0,1,2.16.22,9.15,9.15,0,0,1,1.77.55l-1,2.57a6.42,6.42,0,0,0-2.88-.65,2.74,2.74,0,0,0-2.22.93,4,4,0,0,0-.78,2.67,4.09,4.09,0,0,0,.71,2.59,2.46,2.46,0,0,0,2,.89,6,6,0,0,0,1.34-.14v-1.9h-2.17V81.4Z"/><path d="M148.49,88.51l-0.6-2.27H144l-0.61,2.27h-3.6l4-12.19h4.37l4,12.19h-3.59Zm-1.28-5-0.52-2q-0.18-.66-0.44-1.72t-0.34-1.51q-0.07.42-.29,1.39t-1,3.83h2.58Z"/><path d="M163.78,88.51l-2.48-8.74h-0.08q0.17,2.23.17,3.47v5.27h-2.91V76.37h4.37L165.39,85h0.07l2.48-8.62h4.37V88.51h-3V83.19c0-.28,0-0.58,0-0.92s0-1.17.11-2.48h-0.07l-2.45,8.72h-3.12Z"/><path d="M187.23,88.51H180V76.37h7.21V79H183.3v1.91h3.64v2.63H183.3v2.29h3.93v2.67Z"/></svg>